<?xml version="1.0" encoding="UTF-8"?>
<!--
Copyright (c) 2024 Michael Crinnion
This logo is a trademark of Michael Crinnion and is not covered by the AGPL-3.0 license.
All rights reserved.
-->
<svg id="Layer_2" data-name="Layer 2" xmlns="http://www.w3.org/2000/svg" viewBox="0 0 395.96 273.63">
  <defs>
    <style>
      .cls-1 {
        fill: #27272a;
      }
    </style>
  </defs>
  <g id="Layer_1-2" data-name="Layer 1">
    <path class="cls-1" d="M356.35,66.77h-59.65v-27.16c0-21.79-17.83-39.62-39.62-39.62H6.6C2.96,0,0,2.96,0,6.6v130.94c0,21.79,17.83,39.62,39.62,39.62h35.71c3.08,0,5.57-2.49,5.57-5.57v-78.41c0-14.59,11.82-26.41,26.41-26.41h16.52c3.65,0,6.6,2.96,6.6,6.6v8.49c0,3.65-2.96,6.6-6.6,6.6h-9.13c-3.65,0-6.6,2.96-6.6,6.6v76.53c0,3.08,2.49,5.57,5.57,5.57h143.42c21.79,0,39.62-17.83,39.62-39.62v-44.37h59.65c7.26,0,13.21,5.94,13.21,13.21v127.63c0,7.26-5.94,13.21-13.21,13.21H121.01c-7.26,0-13.21-5.94-13.21-13.21v-6.83c0-3.65-2.96-6.6-6.6-6.6h-13.21c-3.65,0-6.6,2.96-6.6,6.6v6.83c0,21.79,17.83,39.62,39.62,39.62h235.34c21.79,0,39.62-17.83,39.62-39.62v-127.63c0-21.79-17.83-39.62-39.62-39.62Z"/>
  </g>
</svg>